<svg width="64" height="63" viewBox="0 0 64 63" fill="none" xmlns="http://www.w3.org/2000/svg">
<path d="M11.0313 2.10584C8.84405 -0.123314 5.26382 -0.157244 3.03467 2.03005C0.805519 4.21735 0.771589 7.79758 2.95888 10.0267L11.0313 2.10584ZM56.8685 62.6031C59.9914 62.6327 62.547 60.1251 62.5766 57.0022L63.0588 6.1116C63.0884 2.9887 60.5808 0.433097 57.4579 0.403503C54.335 0.373907 51.7794 2.88153 51.7498 6.00442L51.3211 51.2405L6.08507 50.8118C2.96218 50.7822 0.406573 53.2898 0.376978 56.4127C0.347381 59.5356 2.855 62.0912 5.9779 62.1208L56.8685 62.6031ZM2.95888 10.0267L52.8858 60.909L60.9583 52.9881L11.0313 2.10584L2.95888 10.0267Z" fill="#EF3B33"/>
</svg>
