<svg width="179" height="100" viewBox="0 0 179 100" fill="none" xmlns="http://www.w3.org/2000/svg">
<path d="M49.1703 49.2754C48.6148 49.3164 48.1005 49.4188 47.6685 49.5828C47.4216 49.6853 47.1747 49.8492 46.9278 50.0746C46.681 50.3001 46.4547 50.5665 46.2284 50.8329C46.0021 51.1198 45.7963 51.3862 45.6112 51.6731C45.426 51.96 45.2614 52.2059 45.1174 52.4109H45.0968L44.9117 51.2018C44.7677 50.2591 43.9653 49.5828 43.019 49.5828H42.0315C40.9617 49.5828 40.1182 50.4435 40.1182 51.4887V65.4857C40.1182 66.5513 40.9822 67.3916 42.0315 67.3916H43.2864C44.3562 67.3916 45.1997 66.5308 45.1997 65.4857V54.7061C45.1997 54.6447 45.2203 54.6037 45.2614 54.5627C45.4877 54.3168 45.6935 54.1118 45.8786 53.9274C46.0843 53.743 46.2901 53.579 46.4958 53.456C46.7015 53.3331 46.9073 53.2511 47.1541 53.2101C47.3804 53.1691 47.6479 53.1281 47.9359 53.1281C48.3474 53.1281 48.7588 53.1691 49.2114 53.2511C49.4377 53.2921 49.6435 53.3331 49.8492 53.3946C49.9109 53.4151 49.9521 53.4356 50.0138 53.4356C50.0344 53.4356 50.0755 53.456 50.0961 53.456C50.2812 53.456 50.4664 53.3741 50.5281 53.2306C50.5693 53.1281 50.5898 52.7593 50.5898 52.7593L51.0219 49.4188C51.0424 49.2959 50.9396 49.1729 50.8161 49.1934C50.1989 49.2139 49.664 49.2344 49.1703 49.2754Z" fill="#171D1A"/>
<path d="M32.1958 58.2515C32.1958 56.2226 31.8666 54.7471 31.2288 53.7839C30.5705 52.8412 29.6859 52.3494 28.5955 52.3494C28.0606 52.3494 27.5257 52.4108 26.9702 52.5133C26.4147 52.6363 25.9004 52.8002 25.4478 53.0052V64.7069C25.777 64.8094 26.1679 64.8708 26.5793 64.9118C26.9908 64.9528 27.4228 64.9733 27.8137 64.9733C28.5749 64.9733 29.2127 64.9118 29.7476 64.8094C30.2825 64.6864 30.6939 64.502 30.9614 64.2356C31.2494 63.9486 31.5374 63.2929 31.8049 62.2477C32.0518 61.223 32.1958 59.8909 32.1958 58.2515ZM21.6007 37.922L23.5345 37.5326C24.5015 37.3277 25.4272 38.0655 25.4272 39.0696V48.2712V49.2549C25.4272 49.6033 25.4067 49.9107 25.4067 50.1771C25.3861 50.505 25.3861 50.8329 25.3861 51.1403C26.0856 50.6279 26.8468 50.1771 27.6903 49.7877C28.5132 49.4188 29.4596 49.2139 30.4882 49.2139C31.3934 49.2139 32.2781 49.3778 33.1216 49.6852C33.965 49.9926 34.7263 50.505 35.364 51.2017C36.0224 51.8985 36.5367 52.8002 36.9276 53.9069C37.3185 55.0135 37.5036 56.3661 37.5036 57.9646C37.5036 59.5016 37.2773 60.8746 36.8453 62.0837C36.4132 63.2929 35.7961 64.3175 34.9937 65.1578C34.1914 65.998 33.2039 66.6333 32.0518 67.0841C30.8997 67.535 29.6036 67.7399 28.1429 67.7399C26.9908 67.7399 25.7358 67.6784 24.378 67.5145C23.4111 67.412 22.4647 67.2481 21.5184 67.0227C20.8189 66.8587 20.3457 66.2234 20.3457 65.5061V39.459C20.3457 38.7008 20.86 38.0655 21.6007 37.922Z" fill="#171D1A"/>
<path d="M85.2927 67.4123C84.1611 67.4123 83.2353 66.49 83.2353 65.3629V55.4646C83.2353 54.3989 83.0708 53.6202 82.721 53.1283C82.3713 52.6365 81.8158 52.3701 80.9929 52.3701C80.7049 52.3701 80.3757 52.4111 80.026 52.493C79.6762 52.575 79.3059 52.6775 78.9562 52.8209C78.6064 52.9644 78.2361 53.1283 77.8864 53.3128C77.5366 53.4972 77.2074 53.7022 76.9194 53.9071V65.3629C76.9194 66.49 75.9936 67.4123 74.8621 67.4123H73.8952C72.7637 67.4123 71.8379 66.49 71.8379 65.3629V51.6323C71.8379 50.5052 72.7637 49.583 73.8952 49.583H74.7181C75.685 49.583 76.5285 50.2593 76.7343 51.1815L76.8371 51.6528H76.8989C77.2486 51.4274 77.6601 51.161 78.1538 50.8946C78.6476 50.6076 79.1825 50.3412 79.7585 50.0953C80.3345 49.8494 80.9312 49.624 81.5689 49.46C82.1861 49.2961 82.8033 49.1936 83.3999 49.1936C84.0788 49.1936 84.7166 49.2961 85.2927 49.5215C85.8893 49.7469 86.4036 50.0748 86.8562 50.5052C87.3088 50.9355 87.6585 51.4889 87.926 52.1447C88.1934 52.8004 88.3169 53.5792 88.3169 54.4604V65.3424C88.3169 66.4696 87.3911 67.3918 86.2596 67.3918H85.2927V67.4123Z" fill="#171D1A"/>
<path d="M96.713 58.6611C96.713 60.7104 97.0628 62.2064 97.7211 63.1696C98.4 64.1328 99.3052 64.6042 100.416 64.6042C100.972 64.6042 101.527 64.5222 102.062 64.3787C102.597 64.2353 103.07 64.0509 103.461 63.8254V53.9066C103.461 52.841 102.618 51.9802 101.548 51.9392C101.404 51.9392 101.26 51.9392 101.136 51.9392C100.416 51.9392 99.799 52.0007 99.2435 52.1032C98.7086 52.2262 98.2766 52.4106 97.968 52.677C97.68 52.9639 97.392 53.6197 97.1039 54.6239C96.8571 55.6281 96.713 56.9601 96.713 58.6611ZM103.564 49.5415C103.564 49.2751 103.543 49.0087 103.543 48.7628C103.523 48.5578 103.523 48.3324 103.523 48.107V47.5332V39.7866C103.523 38.844 104.181 38.0447 105.107 37.8603L106.197 37.6348C107.432 37.3889 108.584 38.3111 108.584 39.5612V65.4444C108.584 66.5306 107.699 67.4118 106.609 67.4118H106.053C105.477 67.4118 104.922 67.1454 104.531 66.715L103.708 65.7313H103.605C102.906 66.2436 102.165 66.6945 101.363 67.1249C100.56 67.5552 99.6344 67.7602 98.5852 67.7602C97.6594 67.7602 96.7542 67.5962 95.8901 67.2888C95.0261 66.9814 94.2649 66.4691 93.6065 65.7723C92.9482 65.0755 92.4133 64.1738 92.0224 63.0467C91.6315 61.9195 91.4258 60.567 91.4258 58.9685C91.4258 57.452 91.6109 56.0789 92.0018 54.8698C92.3927 53.6607 92.9482 52.6565 93.6888 51.8163C94.4294 50.9965 95.3141 50.3408 96.3633 49.9104C97.4125 49.4595 98.6058 49.2341 99.9224 49.2341C100.457 49.2341 101.054 49.2546 101.692 49.3161C102.329 49.3776 102.947 49.4595 103.564 49.5415Z" fill="#171D1A"/>
<path d="M115.476 67.4119H114.447C113.336 67.4119 112.41 66.5102 112.41 65.3831V51.6115C112.41 50.4844 113.315 49.5826 114.447 49.5826H115.476C116.586 49.5826 117.512 50.4844 117.512 51.6115V65.4036C117.492 66.5102 116.586 67.4119 115.476 67.4119Z" fill="#171D1A"/>
<path d="M146.129 58.6615C146.129 60.7108 146.458 62.2068 147.137 63.17C147.816 64.1332 148.721 64.6045 149.832 64.6045C150.388 64.6045 150.923 64.5226 151.437 64.3791C151.951 64.2357 152.424 64.0512 152.877 63.8053V54.0094C152.877 52.8823 151.992 51.9601 150.861 51.9191C150.758 51.9191 150.655 51.9191 150.552 51.9191C149.894 51.9191 149.297 51.9806 148.742 52.0831C148.186 52.206 147.754 52.3905 147.446 52.6569C147.137 52.9438 146.828 53.6201 146.54 54.6447C146.273 55.7104 146.129 57.0425 146.129 58.6615ZM152.898 65.8546C152.198 66.367 151.457 66.7973 150.696 67.1867C149.935 67.5761 149.03 67.7605 147.981 67.7605C147.055 67.7605 146.15 67.5966 145.306 67.2892C144.442 66.9818 143.701 66.4694 143.043 65.7727C142.385 65.0759 141.85 64.1742 141.459 63.047C141.068 61.9199 140.862 60.5673 140.862 58.9689C140.862 57.4318 141.047 56.0588 141.438 54.8497C141.829 53.6406 142.385 52.6159 143.125 51.7962C143.866 50.9764 144.751 50.3206 145.8 49.8903C146.849 49.4394 148.022 49.214 149.338 49.214C150.635 49.214 152.033 49.2755 153.515 49.3984C154.379 49.4599 155.263 49.5419 156.128 49.6239C157.197 49.7263 158 50.628 158 51.6937V77.0236C158 78.0482 157.259 78.9089 156.251 79.0729L155.346 79.2163C154.07 79.4213 152.918 78.4581 152.918 77.167V68.4983C152.918 68.0065 152.918 67.5146 152.939 67.0023C152.959 66.4899 152.98 66.1006 153.021 65.8342H152.898V65.8546Z" fill="#171D1A"/>
<path d="M129.013 64.4612C128.499 64.6046 127.984 64.6661 127.429 64.6661C126.915 64.6661 126.544 64.4202 126.318 63.9079C126.092 63.416 125.989 62.7602 125.989 61.9405C125.989 61.7151 125.989 61.4487 126.009 61.1822C126.009 60.8953 126.03 60.6289 126.071 60.3625C126.092 60.0961 126.133 59.8707 126.195 59.6452C126.236 59.4403 126.297 59.2969 126.38 59.2149C126.524 59.0099 126.915 58.8255 127.552 58.6821C128.005 58.5796 128.581 58.5181 129.322 58.4771C129.877 58.4566 130.35 58.9075 130.35 59.4608C130.35 59.7887 130.35 60.1166 130.371 60.4445C130.391 61.0798 130.391 61.6331 130.412 62.1249C130.433 62.6168 130.453 63.0267 130.474 63.3341C130.494 63.662 130.515 63.8464 130.535 63.9284C130.021 64.1538 129.507 64.3177 129.013 64.4612ZM138.477 64.994C138.415 64.7891 138.271 64.6456 138.086 64.5637C137.818 64.6251 137.571 64.6866 137.345 64.7071C137.16 64.7276 136.954 64.7686 136.81 64.7686C135.864 64.7686 135.391 63.8054 135.391 61.8995V53.6817C135.391 52.8414 135.288 52.1242 135.062 51.5503C134.835 50.9765 134.506 50.5052 134.095 50.1568C133.683 49.8084 133.148 49.5625 132.531 49.419C131.914 49.2756 131.194 49.1936 130.391 49.1936C129.692 49.1936 128.992 49.2551 128.293 49.378C127.594 49.501 126.894 49.665 126.195 49.8699C125.516 50.0748 124.837 50.3002 124.158 50.5667C123.788 50.7101 123.438 50.8536 123.109 50.9765C122.615 51.1815 122.389 51.7348 122.574 52.2266L122.594 52.2881C122.779 52.8004 123.335 53.0259 123.849 52.8619C124.446 52.657 125.022 52.5135 125.598 52.4111C126.441 52.2471 127.182 52.1856 127.82 52.1856C128.725 52.1856 129.383 52.3496 129.754 52.6775C130.124 53.0054 130.33 53.5177 130.33 54.2145V55.854C130.33 56.3868 129.898 56.8172 129.363 56.8376L127.244 56.8991C126.03 56.9401 125.001 57.0836 124.158 57.309C123.314 57.5549 122.635 57.9033 122.101 58.3542C121.566 58.805 121.175 59.3788 120.948 60.0756C120.702 60.7724 120.578 61.5716 120.578 62.5143C120.578 64.2768 120.99 65.5883 121.792 66.4491C122.594 67.3098 123.685 67.7606 125.084 67.7606C125.701 67.7606 126.256 67.6992 126.771 67.5557C127.264 67.4122 127.758 67.2483 128.211 67.0434C128.663 66.8384 129.095 66.5925 129.527 66.3056C129.939 66.0187 130.371 65.7318 130.782 65.4449C130.906 65.6908 131.029 65.9572 131.194 66.2236C131.358 66.49 131.564 66.736 131.811 66.9409C132.058 67.1458 132.346 67.3098 132.675 67.4532C133.004 67.5967 133.395 67.6582 133.868 67.6582C134.3 67.6582 134.732 67.5967 135.185 67.4942C135.638 67.3918 136.07 67.2483 136.481 67.0639C136.893 66.8794 137.283 66.6745 137.654 66.4286C137.777 66.3466 137.839 66.2851 137.942 66.2031C138.168 66.0392 138.394 65.8957 138.559 65.7318C138.6 65.6088 138.6 65.4859 138.58 65.3629L138.477 64.994Z" fill="#171D1A"/>
<path d="M60.0306 64.4612C59.5163 64.6046 59.002 64.6661 58.4465 64.6661C57.9322 64.6661 57.5619 64.4202 57.3356 63.9079C57.1093 63.416 57.0064 62.7602 57.0064 61.9405C57.0064 61.7151 57.0064 61.4487 57.027 61.1822C57.027 60.8953 57.0475 60.6289 57.0887 60.3625C57.1093 60.0961 57.1504 59.8707 57.2121 59.6452C57.2533 59.4403 57.315 59.2969 57.3973 59.2149C57.5413 59.0099 57.9322 58.8255 58.57 58.6821C59.0226 58.5796 59.5986 58.5181 60.3392 58.4771C60.8947 58.4566 61.3679 58.9075 61.3679 59.4608C61.3679 59.7887 61.3679 60.1166 61.3884 60.4445C61.409 61.0798 61.409 61.6331 61.4296 62.1249C61.4502 62.6168 61.4707 63.0267 61.4913 63.3341C61.5119 63.662 61.5325 63.8464 61.553 63.9284C61.0387 64.1538 60.545 64.3177 60.0306 64.4612ZM69.4942 64.994C69.4325 64.7891 69.2885 64.6456 69.1033 64.5637C68.8359 64.6251 68.589 64.6866 68.3627 64.7071C68.1775 64.7276 67.9718 64.7686 67.8278 64.7686C66.8814 64.7686 66.4083 63.8054 66.4083 61.8995V53.6817C66.4083 52.8414 66.3054 52.1242 66.0791 51.5503C65.8528 50.9765 65.5236 50.5052 65.1122 50.1568C64.7007 49.8084 64.1658 49.5625 63.5486 49.419C62.9314 49.2756 62.2114 49.1936 61.409 49.1936C60.7095 49.1936 60.0101 49.2551 59.3106 49.378C58.6111 49.501 57.9116 49.665 57.2121 49.8699C56.5332 50.0748 55.8543 50.3002 55.1754 50.5667C54.8051 50.7101 54.4553 50.8536 54.1262 50.9765C53.6324 51.1815 53.4061 51.7348 53.5913 52.2266L53.6119 52.2881C53.797 52.8004 54.3525 53.0259 54.8668 52.8619C55.4634 52.657 56.0395 52.5135 56.6155 52.4111C57.459 52.2471 58.1996 52.1856 58.8374 52.1856C59.7426 52.1856 60.4009 52.3496 60.7713 52.6775C61.1416 53.0054 61.3473 53.5177 61.3473 54.2145V55.854C61.3473 56.3868 60.9153 56.8172 60.3804 56.8376L58.2614 56.8991C57.0475 56.9401 56.0189 57.0836 55.1754 57.309C54.3319 57.5549 53.653 57.9033 53.1181 58.3542C52.5832 58.805 52.1923 59.3788 51.966 60.0756C51.7191 60.7724 51.5957 61.5716 51.5957 62.5143C51.5957 64.2768 52.0072 65.5883 52.8095 66.4491C53.6119 67.3098 54.7022 67.7606 56.1012 67.7606C56.7184 67.7606 57.2738 67.6992 57.7882 67.5557C58.2819 67.4122 58.7757 67.2483 59.2283 67.0434C59.6809 66.8384 60.1129 66.5925 60.545 66.3056C60.9564 66.0187 61.3884 65.7318 61.7999 65.4449C61.9233 65.6908 62.0468 65.9572 62.2114 66.2236C62.376 66.49 62.5817 66.736 62.8286 66.9409C63.0754 67.1458 63.3635 67.3098 63.6926 67.4532C64.0218 67.5967 64.4127 67.6582 64.8859 67.6582C65.3179 67.6582 65.7499 67.5967 66.2025 67.4942C66.6551 67.3918 67.0872 67.2483 67.4986 67.0639C67.9101 66.8794 68.301 66.6745 68.6713 66.4286C68.7947 66.3466 68.8565 66.2851 68.9593 66.2031C69.1856 66.0392 69.4119 65.8957 69.5765 65.7318C69.6177 65.6088 69.6177 65.4859 69.5971 65.3629L69.4942 64.994Z" fill="#171D1A"/>
</svg>
