<svg width="252" height="100" viewBox="0 0 252 100" fill="none" xmlns="http://www.w3.org/2000/svg">
<path d="M251.467 38H0.0205078V77.4164H251.467V38Z" fill="#020000"/>
<path d="M11.4199 49.2643H13.0875V66.1527H11.4199V49.2643Z" fill="white"/>
<path d="M20.1527 50.7197H15.165V49.2643H26.808V50.7197H21.8204V66.1527H20.1527V50.7197Z" fill="white"/>
<path d="M47.9555 60.2554C47.9555 65.2431 44.3019 66.4559 41.8308 66.4559C39.3597 66.4559 35.7061 65.2431 35.7061 60.2554V49.2643H37.3737V60.2554C37.3737 63.0146 38.9048 65.0005 41.8308 65.0005C44.7567 65.0005 46.2878 63.0146 46.2878 60.2554V49.2643H47.9555V60.2554Z" fill="white"/>
<path d="M51.7637 49.2643H53.8709L62.4667 64.1212H62.5122V49.2643H64.1798V66.1527H61.9361L53.4919 51.5838H53.4465V66.1527H51.7788V49.2643H51.7637Z" fill="white"/>
<path d="M67.9072 49.2643H69.5748V66.1527H67.9072V49.2643Z" fill="white"/>
<path d="M79.6556 66.1527H77.8667L71.5752 49.2643H73.3489L78.7914 64.4851L84.431 49.2643H86.0683L79.6556 66.1527Z" fill="white"/>
<path d="M88.2979 49.2643H96.5753V50.7197H89.9655V56.7382H96.2266V58.1936H89.9655V64.6973H96.8633V66.1527H88.2979V49.2643Z" fill="white"/>
<path d="M100.441 49.2643H104.792C107.794 49.2643 109.75 50.5529 109.75 53.6456C109.75 55.8286 108.082 57.2688 106.005 57.5417V57.5872C107.354 57.754 107.642 58.4817 108.188 59.6187L111.069 66.1527H109.234L106.794 60.4373C105.823 58.2543 105.096 58.1936 103.504 58.1936H102.124V66.1527H100.457V49.2643H100.441ZM102.109 56.7382H103.868C105.823 56.7382 108.082 55.9954 108.082 53.6456C108.082 50.8864 106.126 50.7197 103.822 50.7197H102.109V56.7382Z" fill="white"/>
<path d="M113.404 64C114.389 64.6216 115.556 64.9855 117.133 64.9855C119.21 64.9855 120.938 63.9242 120.938 61.5289C120.938 58.2089 113.191 57.7995 113.191 53.3728C113.191 50.6591 115.556 48.9763 118.543 48.9763C119.362 48.9763 120.696 49.0976 121.863 49.5372L121.59 51.0533C120.847 50.6439 119.65 50.4317 118.513 50.4317C116.769 50.4317 114.859 51.1594 114.859 53.3273C114.859 56.7232 122.606 56.7383 122.606 61.6805C122.606 65.0916 119.68 66.4408 117.057 66.4408C115.405 66.4408 114.131 66.1073 113.237 65.7131L113.404 64Z" fill="white"/>
<path d="M125.742 49.2643H127.41V66.1527H125.742V49.2643Z" fill="white"/>
<path d="M134.477 50.7197H129.489V49.2643H141.132V50.7197H136.145V66.1527H134.477V50.7197Z" fill="white"/>
<path d="M147.908 58.9971L141.646 49.2643H143.587L148.741 57.5114L154.048 49.2643H155.867L149.606 58.9971V66.1527H147.938V58.9971H147.908Z" fill="white"/>
<path d="M171.603 48.9763C176.682 48.9763 179.077 53.1454 179.031 57.7086C178.986 62.8934 176.469 66.4408 171.603 66.4408C166.737 66.4408 164.22 62.8782 164.174 57.7086C164.129 53.1302 166.524 48.9763 171.603 48.9763ZM165.857 57.7086C165.857 61.2864 167.646 65.0006 171.618 65.0006C175.59 65.0006 177.379 61.3015 177.379 57.7086C177.379 54.1156 175.59 50.4317 171.618 50.4317C167.646 50.4317 165.857 54.1308 165.857 57.7086Z" fill="white"/>
<path d="M182.215 49.2643H190.25V50.7197H183.882V56.7382H189.962V58.1936H183.882V66.1527H182.215V49.2643Z" fill="white"/>
<path d="M211.506 51.1442C210.445 50.5833 208.913 50.4165 207.731 50.4165C203.35 50.4165 200.879 53.5092 200.879 57.6934C200.879 61.8776 203.274 64.9855 207.731 64.9855C208.838 64.9855 210.536 64.8339 211.506 64.2578L211.597 65.7131C210.672 66.2741 208.792 66.4408 207.731 66.4408C202.41 66.4408 199.211 62.9388 199.211 57.7086C199.211 52.4783 202.501 48.9763 207.731 48.9763C208.716 48.9763 210.733 49.1431 211.597 49.5979L211.506 51.1442Z" fill="white"/>
<path d="M216.053 49.2643H220.222C223.39 49.2643 225.452 50.8561 225.452 54.0549C225.452 57.2537 223.087 58.8455 220.055 58.8455H217.736V66.1527H216.068V49.2643H216.053ZM217.72 57.3901H218.888C221.404 57.3901 223.769 57.1021 223.769 54.0549C223.769 51.9173 222.556 50.7197 220.434 50.7197H217.72V57.4053V57.3901Z" fill="white"/>
<path d="M228.21 49.2643H229.878V56.7382H238.428V49.2643H240.096V66.1527H238.428V58.1936H229.878V66.1527H228.21V49.2643Z" fill="white"/>
</svg>
