<svg width="27" height="48" viewBox="0 0 27 48" fill="none" xmlns="http://www.w3.org/2000/svg">
<path d="M26.1908 14.5409C26.1908 6.8959 20.4878 0.698364 13.4528 0.698364C6.41784 0.698364 0.714844 6.8959 0.714844 14.5409V33.5536C0.714844 41.1987 6.41784 47.3962 13.4528 47.3962C20.4878 47.3962 26.1908 41.1987 26.1908 33.5536V14.5409Z" fill="#EF3B33"/>
<path d="M14.3776 25.2343C14.7806 25.3294 15.0947 25.5644 15.4451 25.767C16.2119 25.163 16.9891 24.5656 17.7386 23.9406C18.0862 23.6505 18.3975 23.3051 18.7708 23.0531C19.3456 23.132 18.4395 23.8379 18.2705 24.0224C17.5438 24.8196 16.8325 25.6272 16.0495 26.3701C16.2835 26.8087 16.5613 27.2234 16.6348 27.7295L16.6816 27.7637C17.5333 27.8294 18.3698 28.0158 19.2157 28.13C19.5853 28.1795 22.149 28.4106 22.2368 28.5409C22.2807 28.6056 22.2444 28.7141 22.2043 28.7769L16.5537 29.6416C16.4954 29.7871 16.4496 29.9374 16.378 30.0772C16.3112 30.2076 16.0887 30.4568 16.1441 30.5767C16.928 31.4138 17.6718 32.287 18.4337 33.1432C18.5254 33.2469 19.0983 33.7044 18.8987 33.829C18.6801 33.8861 18.5913 33.7843 18.4356 33.6711C18.1979 33.4971 17.9716 33.2526 17.7386 33.0623C16.9891 32.4516 16.2319 31.858 15.5273 31.195L14.4053 31.7353C14.2707 32.9234 14.033 34.1011 13.883 35.2864C13.779 36.113 13.7771 37.0824 13.6281 37.8824C13.6004 38.0289 13.5718 38.28 13.3703 38.2353C13.3025 38.2201 13.2357 37.6617 13.2242 37.5609C13.0762 36.2757 12.9884 34.9829 12.8557 33.694L12.5921 31.7581C12.4308 31.6687 12.2465 31.6525 12.0784 31.5774C11.9362 31.5146 11.622 31.2511 11.5609 31.2349C11.5265 31.2254 11.4969 31.2273 11.4683 31.2492L8.60573 34.0593C8.22189 34.1325 8.47397 33.7967 8.5895 33.6359C9.32185 32.6181 10.1659 31.6687 10.9317 30.6756C10.7188 30.3246 10.4676 29.9945 10.3683 29.5864L7.47809 29.1593C6.68558 29.0327 5.77755 29.0175 5.00127 28.8587C4.7893 28.8149 4.5506 28.7521 4.7492 28.5057L10.3454 27.7324C10.396 27.2215 10.6863 26.7858 10.9183 26.3435L8.08058 23.1948C8.15219 23.0597 8.29924 23.0578 8.41859 23.1339L11.4673 25.7176C11.4979 25.7318 11.5294 25.7366 11.5628 25.728C11.5886 25.7214 11.8999 25.4759 11.9982 25.4265C12.1644 25.3428 12.3563 25.2885 12.532 25.2258C12.7716 23.9453 12.9521 22.6497 13.103 21.3569C13.1622 20.848 13.1631 20.3229 13.2309 19.8149C13.2481 19.6894 13.3025 19.1995 13.4142 19.1814C13.5345 19.1614 13.5746 19.4068 13.589 19.4896C13.6558 19.8682 13.6682 20.3096 13.7217 20.7006C13.9317 22.2131 14.1504 23.7266 14.3796 25.2362L14.3776 25.2343Z" fill="#F4EAE1"/>
<path d="M13.2854 10.6383C16.3529 10.0994 15.4697 14.9357 12.9537 13.4986C11.6814 12.7694 11.7675 10.906 13.2854 10.6383ZM13.2822 11.3851C12.1342 11.7479 13.2088 13.5584 14.191 12.8504C15.0583 12.2234 14.0507 11.142 13.2822 11.3851Z" fill="#F4EAE1"/>
</svg>
