<svg width="233" height="100" viewBox="0 0 233 100" fill="none" xmlns="http://www.w3.org/2000/svg">
<path d="M27.0754 72.6062V55.1001H30.5837L30.9186 58.3968L29.8256 57.3566C30.6718 56.5222 31.5886 55.8875 32.5758 55.4527C33.5748 55.0178 34.662 54.8004 35.8373 54.8004C38.1879 54.8004 39.9097 55.5408 41.0027 57.0217C42.0958 58.5026 42.6423 60.4594 42.6423 62.8923V72.6062H38.7109V63.1039C38.7109 61.3879 38.4112 60.1304 37.8118 59.3312C37.2124 58.5202 36.2251 58.1147 34.85 58.1147C33.7805 58.1147 32.8696 58.3615 32.1175 58.8552C31.3653 59.3488 30.7776 60.0598 30.3545 60.9883L31.0068 58.908V72.6062H27.0754ZM50.5293 72.9588C49.542 72.9588 48.6547 72.7472 47.8672 72.3241C47.0798 71.901 46.4569 71.3016 45.9985 70.5259C45.5519 69.7502 45.3286 68.8335 45.3286 67.7757C45.3286 66.7885 45.5519 65.9422 45.9985 65.2371C46.4569 64.5201 47.0563 63.9266 47.7967 63.4565C48.5489 62.9863 49.3658 62.6161 50.2472 62.3458C51.1405 62.0637 52.0337 61.8581 52.9269 61.7288C53.8319 61.5995 54.6546 61.529 55.3951 61.5172C55.3598 60.2714 55.0718 59.4134 54.5312 58.9433C54.0023 58.4614 53.162 58.2205 52.0102 58.2205C51.2697 58.2205 50.5293 58.3263 49.7889 58.5378C49.0484 58.7494 48.2081 59.1196 47.2678 59.6485L46.8624 56.4399C47.7908 55.9228 48.7781 55.5232 49.8241 55.2411C50.8819 54.9473 51.9632 54.8004 53.068 54.8004C54.4431 54.8004 55.5949 55.0413 56.5233 55.5232C57.4518 56.0051 58.1511 56.7984 58.6213 57.9032C59.1031 59.0079 59.3441 60.483 59.3441 62.3282V66.6298C59.3441 67.4878 59.3852 68.1401 59.4675 68.5867C59.5497 69.0333 59.7084 69.3389 59.9435 69.5034C60.1903 69.6679 60.5605 69.7502 61.0541 69.7502H61.5301L61.107 72.9588H60.014C59.2148 72.9588 58.5507 72.8648 58.0219 72.6767C57.493 72.5004 57.0581 72.2477 56.7173 71.9186C56.3882 71.5896 56.1061 71.1958 55.8711 70.7375C55.2716 71.4191 54.4959 71.9598 53.544 72.3594C52.6037 72.759 51.5988 72.9588 50.5293 72.9588ZM51.9044 69.9089C52.4568 69.9089 53.0621 69.7678 53.7202 69.4858C54.3784 69.1919 54.9426 68.7806 55.4127 68.2517V64.1969C54.2844 64.2322 53.2678 64.3791 52.3628 64.6376C51.4578 64.8845 50.7409 65.2547 50.212 65.7483C49.6948 66.2302 49.4363 66.8472 49.4363 67.5994C49.4363 68.3869 49.6419 68.9686 50.0533 69.3447C50.4764 69.7208 51.0934 69.9089 51.9044 69.9089ZM63.9528 72.6062V55.1001H67.2319L67.6374 57.9561L66.8088 57.2509C67.6198 56.4869 68.5071 55.8875 69.4709 55.4527C70.4464 55.0178 71.5335 54.8004 72.7323 54.8004C73.6373 54.8004 74.46 54.9414 75.2005 55.2235C75.9527 55.4938 76.605 55.9169 77.1573 56.4928C77.7215 57.0687 78.174 57.8033 78.5148 58.6965L77.5099 58.3968C78.0623 57.2685 78.8792 56.387 79.9604 55.7524C81.0417 55.1177 82.3463 54.8004 83.8742 54.8004C85.4374 54.8004 86.7243 55.1118 87.7351 55.7347C88.7458 56.3459 89.4921 57.2391 89.974 58.4144C90.4676 59.5897 90.7145 61.006 90.7145 62.6631V72.6062H86.7654V62.8747C86.7654 61.241 86.4892 60.0422 85.9369 59.2783C85.3845 58.5026 84.4677 58.1147 83.1866 58.1147C82.4462 58.1147 81.8233 58.2381 81.3179 58.4849C80.8125 58.72 80.4129 59.055 80.1191 59.4898C79.8253 59.9247 79.6137 60.4183 79.4844 60.9707C79.3669 61.5231 79.3081 62.1107 79.3081 62.7337V72.6062H75.3591V63.1039C75.3591 61.8933 75.224 60.9237 74.9537 60.195C74.6833 59.4663 74.2779 58.9374 73.7372 58.6083C73.1966 58.2793 72.5267 58.1147 71.7274 58.1147C70.6579 58.1147 69.7471 58.3615 68.9949 58.8552C68.2544 59.337 67.6668 60.0363 67.2319 60.9531L67.8842 58.8375V72.6062H63.9528ZM98.5973 72.9588C97.6101 72.9588 96.7227 72.7472 95.9353 72.3241C95.1478 71.901 94.5249 71.3016 94.0665 70.5259C93.6199 69.7502 93.3966 68.8335 93.3966 67.7757C93.3966 66.7885 93.6199 65.9422 94.0665 65.2371C94.5249 64.5201 95.1243 63.9266 95.8648 63.4565C96.617 62.9863 97.4338 62.6161 98.3153 62.3458C99.2085 62.0637 100.102 61.8581 100.995 61.7288C101.9 61.5995 102.723 61.529 103.463 61.5172C103.428 60.2714 103.14 59.4134 102.599 58.9433C102.07 58.4614 101.23 58.2205 100.078 58.2205C99.3378 58.2205 98.5973 58.3263 97.8569 58.5378C97.1165 58.7494 96.2761 59.1196 95.3359 59.6485L94.9304 56.4399C95.8589 55.9228 96.8461 55.5232 97.8922 55.2411C98.9499 54.9473 100.031 54.8004 101.136 54.8004C102.511 54.8004 103.663 55.0413 104.591 55.5232C105.52 56.0051 106.219 56.7984 106.689 57.9032C107.171 59.0079 107.412 60.483 107.412 62.3282V66.6298C107.412 67.4878 107.453 68.1401 107.536 68.5867C107.618 69.0333 107.776 69.3389 108.012 69.5034C108.258 69.6679 108.629 69.7502 109.122 69.7502H109.598L109.175 72.9588H108.082C107.283 72.9588 106.619 72.8648 106.09 72.6767C105.561 72.5004 105.126 72.2477 104.785 71.9186C104.456 71.5896 104.174 71.1958 103.939 70.7375C103.34 71.4191 102.564 71.9598 101.612 72.3594C100.672 72.759 99.6669 72.9588 98.5973 72.9588ZM99.9724 69.9089C100.525 69.9089 101.13 69.7678 101.788 69.4858C102.446 69.1919 103.011 68.7806 103.481 68.2517V64.1969C102.352 64.2322 101.336 64.3791 100.431 64.6376C99.5258 64.8845 98.8089 65.2547 98.28 65.7483C97.7629 66.2302 97.5043 66.8472 97.5043 67.5994C97.5043 68.3869 97.71 68.9686 98.1213 69.3447C98.5445 69.7208 99.1615 69.9089 99.9724 69.9089ZM112.021 72.6062V55.1001H115.529L115.864 58.3968L114.771 57.3566C115.617 56.5222 116.534 55.8875 117.521 55.4527C118.52 55.0178 119.607 54.8004 120.783 54.8004C123.133 54.8004 124.855 55.5408 125.948 57.0217C127.041 58.5026 127.588 60.4594 127.588 62.8923V72.6062H123.656V63.1039C123.656 61.3879 123.357 60.1304 122.757 59.3312C122.158 58.5202 121.171 58.1147 119.795 58.1147C118.726 58.1147 117.815 58.3615 117.063 58.8552C116.311 59.3488 115.723 60.0598 115.3 60.9883L115.952 58.908V72.6062H112.021ZM138.595 72.9588C136.926 72.9588 135.487 72.5474 134.276 71.7247C133.077 70.902 132.155 69.8031 131.508 68.428C130.862 67.0529 130.538 65.5426 130.538 63.8972C130.538 62.2635 130.85 60.7592 131.473 59.384C132.096 57.9972 133.007 56.8865 134.205 56.0521C135.416 55.2176 136.879 54.8004 138.595 54.8004C139.841 54.8004 140.94 55.0295 141.892 55.4879C142.856 55.9345 143.678 56.5809 144.36 57.4272L143.443 58.1852V46.1619H147.375V72.6062H143.725L143.373 69.3624L144.483 70.1557C143.767 71.0489 142.932 71.7424 141.98 72.236C141.028 72.7179 139.9 72.9588 138.595 72.9588ZM139.212 69.6444C140.117 69.6444 140.905 69.4211 141.575 68.9745C142.245 68.5279 142.768 67.8756 143.144 67.0176C143.52 66.1597 143.708 65.1195 143.708 63.8972C143.708 62.6984 143.52 61.67 143.144 60.812C142.768 59.9423 142.245 59.2783 141.575 58.8199C140.905 58.3498 140.117 58.1147 139.212 58.1147C138.237 58.1147 137.402 58.3615 136.709 58.8552C136.015 59.3488 135.481 60.0305 135.105 60.9002C134.74 61.7699 134.558 62.7689 134.558 63.8972C134.558 64.9902 134.74 65.9716 135.105 66.8413C135.481 67.7111 136.015 68.3986 136.709 68.904C137.402 69.3976 138.237 69.6444 139.212 69.6444ZM156.011 72.9588C154.941 72.9588 154.071 72.7531 153.402 72.3418C152.743 71.9304 152.261 71.3898 151.956 70.7198C151.65 70.0382 151.498 69.2977 151.498 68.4985V46.1619H155.447V66.7003C155.447 67.6523 155.505 68.3457 155.623 68.7806C155.74 69.2037 155.964 69.474 156.293 69.5915C156.634 69.6973 157.139 69.7502 157.809 69.7502L157.386 72.9588H156.011ZM164.329 72.9588C163.342 72.9588 162.455 72.7472 161.667 72.3241C160.88 71.901 160.257 71.3016 159.799 70.5259C159.352 69.7502 159.129 68.8335 159.129 67.7757C159.129 66.7885 159.352 65.9422 159.799 65.2371C160.257 64.5201 160.856 63.9266 161.597 63.4565C162.349 62.9863 163.166 62.6161 164.047 62.3458C164.941 62.0637 165.834 61.8581 166.727 61.7288C167.632 61.5995 168.455 61.529 169.195 61.5172C169.16 60.2714 168.872 59.4134 168.331 58.9433C167.802 58.4614 166.962 58.2205 165.81 58.2205C165.07 58.2205 164.329 58.3263 163.589 58.5378C162.848 58.7494 162.008 59.1196 161.068 59.6485L160.662 56.4399C161.591 55.9228 162.578 55.5232 163.624 55.2411C164.682 54.9473 165.763 54.8004 166.868 54.8004C168.243 54.8004 169.395 55.0413 170.323 55.5232C171.252 56.0051 171.951 56.7984 172.421 57.9032C172.903 59.0079 173.144 60.483 173.144 62.3282V66.6298C173.144 67.4878 173.185 68.1401 173.268 68.5867C173.35 69.0333 173.508 69.3389 173.744 69.5034C173.99 69.6679 174.361 69.7502 174.854 69.7502H175.33L174.907 72.9588H173.814C173.015 72.9588 172.351 72.8648 171.822 72.6767C171.293 72.5004 170.858 72.2477 170.517 71.9186C170.188 71.5896 169.906 71.1958 169.671 70.7375C169.072 71.4191 168.296 71.9598 167.344 72.3594C166.404 72.759 165.399 72.9588 164.329 72.9588ZM165.704 69.9089C166.257 69.9089 166.862 69.7678 167.52 69.4858C168.178 69.1919 168.743 68.7806 169.213 68.2517V64.1969C168.084 64.2322 167.068 64.3791 166.163 64.6376C165.258 64.8845 164.541 65.2547 164.012 65.7483C163.495 66.2302 163.236 66.8472 163.236 67.5994C163.236 68.3869 163.442 68.9686 163.853 69.3447C164.276 69.7208 164.893 69.9089 165.704 69.9089Z" fill="#262626"/>
<path d="M206.133 54.8768C205.612 54.8768 205.093 54.6712 204.703 54.262L196.276 45.3908L188.198 53.8936C187.44 54.6916 186.186 54.718 185.395 53.9486C184.607 53.1811 184.581 51.9109 185.341 51.1109L194.12 41.8691C194.683 41.2768 195.468 40.9388 196.276 40.9388C197.084 40.9388 197.868 41.2788 198.431 41.8691L207.561 51.4773C208.319 52.2753 208.295 53.5455 207.506 54.315C207.122 54.6895 206.628 54.8748 206.133 54.8748V54.8768Z" fill="#262626"/>
<path d="M206.133 64.4748C205.612 64.4748 205.093 64.2692 204.703 63.8601L196.276 54.9888L188.198 63.4916C187.44 64.2896 186.186 64.316 185.395 63.5466C184.607 62.7791 184.581 61.5089 185.341 60.7089L194.12 51.4671C194.683 50.8748 195.468 50.5369 196.276 50.5369C197.084 50.5369 197.868 50.8768 198.431 51.4671L207.561 61.0753C208.319 61.8733 208.295 63.1435 207.506 63.913C207.122 64.2875 206.628 64.4728 206.133 64.4728V64.4748Z" fill="#262626"/>
<path d="M196.413 75.9273C195.836 75.9273 195.257 75.7055 194.817 75.2597L189.17 69.5436C188.29 68.652 188.29 67.2026 189.17 66.311L194.817 60.595C195.697 59.7034 197.129 59.7034 198.01 60.595L203.656 66.311C204.537 67.2026 204.537 68.652 203.656 69.5436L198.01 75.2597C197.57 75.7055 196.992 75.9273 196.413 75.9273ZM193.18 67.9273L196.413 71.2006L199.647 67.9273L196.413 64.654L193.18 67.9273ZM200.853 66.7059C200.853 66.7059 200.853 66.7059 200.851 66.708H200.853V66.7059Z" fill="#262626"/>
</svg>
