<svg width="444" height="52" viewBox="0 0 444 52" fill="none" xmlns="http://www.w3.org/2000/svg">
<path d="M174.021 20.4776C205.616 20.4776 237.21 20.4472 268.806 20.4776C293.931 20.5018 319.112 20.6359 344.237 21.4587C356.921 21.8741 369.492 22.9883 382.154 23.47C383.276 23.5126 393.049 23.7291 392.402 23.9115C387.311 25.3458 378.038 25.1207 372.899 25.4812C340.966 27.7215 309.085 29.3656 276.938 30.632C227.939 32.5623 179.752 35.6139 131.852 41.326C117.484 43.0393 102.811 44.4383 88.6191 46.5258C84.7487 47.0951 80.4887 47.6241 76.8999 48.6352C74.1481 49.4105 83.1435 48.6835 86.2416 48.5371C107.341 47.5401 128.295 45.3528 149.245 43.7787C231.953 37.5644 314.441 31.8816 398.479 33.4772C411.244 33.7195 423.702 34.62 436.319 35.7337C436.648 35.7627 441.447 35.9299 440.384 35.9299C428.711 35.9299 417.065 36.3911 405.409 36.5677C340.049 37.5574 274.612 37.735 209.21 38.1374C153.898 38.4777 98.2244 38.2274 42.9938 39.8053C30.306 40.1678 16.8112 40.5455 4.28738 41.7675C1.69827 42.0201 9.44584 42.6056 12.0866 42.6505C42.0033 43.1583 71.2518 41.2276 100.81 39.2657C160.865 35.2796 220.773 32.865 281.431 32.4961C321.785 32.2506 362.108 32.2284 402.458 33.7225C412.211 34.0836 382.944 33.7406 373.185 33.7225C332.543 33.647 292.002 32.5358 251.388 31.0735C213.91 29.7241 176.436 28.4328 138.921 28.0811C127.587 27.9749 115.911 27.8154 104.643 28.5226C32.7421 33.0357 248.818 20.9039 321.196 18.8833C355.049 17.9382 388.861 17.3871 422.79 17.3871C424.401 17.3871 437.715 17.1747 428.236 16.9457C401.393 16.297 374.528 16.1756 347.683 15.7929C297.767 15.0812 247.866 13.7006 197.95 13.4627C173.535 13.3464 148.262 12.7968 124.127 14.8853C122.212 15.0511 122.168 15.1939 123.347 15.1797C126.466 15.1419 129.676 14.8337 132.708 14.542C166.703 11.2711 200.136 7.49431 234.627 5.63847C266.803 3.90721 299.076 3.25931 331.464 3.25931C337.842 3.25931 356.834 2.64442 350.599 3.30836C333.134 5.16818 315.045 5.89994 297.382 7.06107C226.932 11.6921 157.236 18.6369 87.887 26.5114C82.4237 27.1317 76.9493 27.7191 71.4813 28.3264C70.1071 28.479 66.2462 28.6908 67.5028 29.0622C69.5917 29.6796 75.903 29.3103 77.6096 29.3075C90.2092 29.2866 102.8 29.1077 115.364 28.7189C174.223 26.8971 232.643 22.6028 291.521 20.7229C307.985 20.1972 324.474 19.785 340.978 19.5946C341.404 19.5897 341.831 19.5946 342.257 19.5946C343.873 19.5946 339.024 19.6035 337.408 19.6191C307.877 19.905 278.394 20.7748 248.864 21.1153C195.565 21.7299 142.34 22.2692 89.2583 24.6718C64.6924 25.7837 40.3814 27.4356 16.1266 29.6754C13.3392 29.9328 9.65468 30.0346 6.95609 30.632C3.43936 31.4105 14.5199 30.1184 18.2438 29.7C46.3352 26.5436 73.6977 21.785 101.914 18.9079C120.396 17.0233 139.194 16.268 158.039 16.0872C162.665 16.0428 167.297 16.0627 171.925 16.0627C180.995 16.0627 153.847 16.6755 144.811 16.9947C106.518 18.3471 67.8621 19.5032 29.7444 21.8021C25.1174 22.0812 39.0731 22.2444 43.7408 22.2681C83.4003 22.4696 123.048 22.6305 162.704 22.7096C202.928 22.7898 323.622 24.4511 283.402 24.4511C223.309 24.4511 164.234 27.2446 105.584 33.7225" stroke="#EF3B33" stroke-width="6" stroke-linecap="round"/>
</svg>
