<svg width="1644" height="194" viewBox="0 0 1644 194" fill="none" xmlns="http://www.w3.org/2000/svg">
<path d="M22.7175 144.938V60.501L7.23743 56.6812V48.4386H36.1871L40.61 68.5426H41.4142C45.435 61.7072 50.863 56.3462 57.6984 52.4594C64.5337 48.4386 71.8382 46.4282 79.6117 46.4282C90.7359 46.4282 98.9785 50.0469 104.34 57.2843C107.02 61.0371 108.896 66.3311 109.969 73.1665C111.175 79.8678 111.778 88.9816 111.778 100.508V144.938L127.258 148.757V157H78.8075V148.757L92.2772 144.938V100.106C92.2772 91.3941 92.0091 84.8938 91.473 80.6049C91.0709 76.3161 90.2668 72.9654 89.0606 70.553C87.4522 67.3363 85.1068 64.9239 82.0242 63.3155C79.0756 61.5732 75.5239 60.702 71.3691 60.702C63.5955 60.702 56.8942 63.1815 51.2651 68.1405C45.77 73.0995 42.7544 80.806 42.2183 91.26V144.938L55.688 148.757V157H7.23743V148.757L22.7175 144.938ZM239.493 101.714C239.493 110.426 238.153 118.735 235.472 126.643C232.926 134.417 229.307 140.85 224.616 145.943C220.595 150.366 215.636 153.649 209.739 155.794C203.842 157.938 197.141 159.01 189.635 159.01C182.264 159.01 175.697 158.005 169.933 155.995C164.17 153.85 159.278 150.634 155.258 146.345C150.701 141.386 147.149 135.288 144.602 128.05C142.19 120.679 140.984 112.704 140.984 104.127C140.984 95.4149 142.257 87.1052 144.803 79.1977C147.35 71.1561 151.036 64.5888 155.861 59.4958C160.15 54.9389 165.108 51.6552 170.738 49.6448C176.501 47.5004 183.068 46.4282 190.439 46.4282C197.811 46.4282 204.445 47.5004 210.342 49.6448C216.24 51.6552 221.199 54.8049 225.219 59.0937C229.91 64.0527 233.462 70.2849 235.874 77.7904C238.287 85.1618 239.493 93.1364 239.493 101.714ZM162.495 101.915C162.495 110.091 163.098 117.194 164.304 123.225C165.645 129.123 167.454 134.014 169.732 137.901C172.011 141.252 174.691 143.865 177.774 145.742C180.991 147.618 185.145 148.556 190.238 148.556C199.486 148.556 206.389 145.407 210.946 139.107C213.358 135.623 215.1 130.798 216.173 124.633C217.379 118.467 217.982 111.364 217.982 103.322C217.982 95.2808 217.312 88.2444 215.972 82.2133C214.765 76.1821 213.023 71.2901 210.744 67.5374C208.6 64.0527 205.853 61.4392 202.502 59.6968C199.285 57.8205 195.13 56.8823 190.037 56.8823C180.656 56.8823 173.887 59.9649 169.732 66.1301C164.907 73.6356 162.495 85.5639 162.495 101.915ZM316.498 60.0989C315.961 59.6968 315.291 59.4288 314.487 59.2947C313.817 59.0267 313.147 58.8927 312.477 58.8927C310.868 58.8927 309.126 59.6298 307.25 61.1041C305.373 62.5784 303.564 64.5888 301.822 67.1353C300.079 69.5478 298.471 72.3623 296.997 75.579C295.12 80.1359 293.646 85.1618 292.574 90.6569C291.502 96.018 290.966 101.58 290.966 107.343V144.938L312.678 148.757V157H255.985V148.757L271.465 144.938V60.501L255.985 56.6812V48.4386H284.934L289.357 74.9758H290.161C293.244 65.862 297.399 58.8257 302.626 53.8667C307.853 48.9077 313.616 46.4282 319.915 46.4282C325.142 46.4282 329.498 48.1035 332.983 51.4542C336.468 54.6708 338.21 59.0267 338.21 64.5218C338.21 68.5426 337.138 71.7592 334.993 74.1717C332.983 76.4501 330.235 77.5894 326.751 77.5894C323.266 77.5894 320.518 76.5171 318.508 74.3727C316.498 72.0943 315.492 69.1457 315.492 65.527C315.492 64.7228 315.559 63.9857 315.693 63.3155C315.827 62.5114 316.096 61.4392 316.498 60.0989ZM349.287 103.724C349.287 95.0128 350.427 86.7031 352.705 78.7956C354.984 70.888 358.401 64.4548 362.958 59.4958C366.845 55.2069 371.469 51.9903 376.83 49.8459C382.191 47.5674 388.356 46.4282 395.326 46.4282C401.223 46.4282 406.584 47.5674 411.409 49.8459C416.368 52.1243 420.791 56.2121 424.677 62.1093V12.2515L409.197 8.43172V0.189097H444.178V144.938L459.658 148.757V157L428.497 159.01L426.889 142.525C422.734 148.69 418.043 152.979 412.816 155.392C407.589 157.804 401.759 159.01 395.326 159.01C388.49 159.01 382.325 158.005 376.83 155.995C371.335 153.984 366.778 150.768 363.159 146.345C358.87 141.118 355.453 134.886 352.906 127.648C350.494 120.277 349.287 112.302 349.287 103.724ZM424.677 103.523C424.677 95.3478 424.074 88.2444 422.868 82.2133C421.662 76.1821 419.919 71.2901 417.641 67.5374C415.497 64.0527 412.883 61.4392 409.8 59.6968C406.718 57.8205 402.63 56.8823 397.537 56.8823C392.98 56.8823 388.959 57.6864 385.475 59.2947C382.124 60.9031 379.376 63.2485 377.232 66.3311C374.82 69.6818 373.077 74.5067 372.005 80.806C370.933 86.9712 370.397 94.0746 370.397 102.116C370.397 110.158 371 117.194 372.206 123.225C373.412 129.123 375.155 134.014 377.433 137.901C379.711 141.252 382.392 143.865 385.475 145.742C388.691 147.618 392.779 148.556 397.738 148.556C402.429 148.556 406.45 147.819 409.8 146.345C413.285 144.737 415.899 142.391 417.641 139.309C419.919 135.556 421.662 130.731 422.868 124.834C424.074 118.802 424.677 111.699 424.677 103.523ZM487.425 60.501L471.945 56.6812V48.4386H506.926V144.938L522.406 148.757V157H471.945V148.757L487.425 144.938V60.501ZM484.611 16.0712C484.611 12.1845 485.75 9.10185 488.028 6.8234C490.307 4.54495 493.322 3.40572 497.075 3.40572C500.962 3.40572 504.045 4.54495 506.323 6.8234C508.601 9.10185 509.741 12.1845 509.741 16.0712C509.741 19.824 508.601 22.8396 506.323 25.118C504.045 27.3965 500.962 28.5357 497.075 28.5357C493.188 28.5357 490.106 27.4635 487.827 25.319C485.683 23.0406 484.611 19.958 484.611 16.0712ZM588.05 46.4282C595.824 46.4282 602.525 47.7685 608.154 50.449C613.917 52.9955 618.34 56.6142 621.423 61.3051C624.639 65.9961 626.248 71.4911 626.248 77.7904C626.248 82.7494 625.176 86.5691 623.031 89.2496C621.021 91.9302 617.938 93.2704 613.783 93.2704C610.031 93.2704 607.015 92.1982 604.737 90.0538C602.592 87.9094 601.52 85.0278 601.52 81.4091C601.52 78.0584 602.391 75.1769 604.133 72.7644C606.01 70.3519 608.489 68.6766 611.572 67.7384C609.562 63.8516 606.68 61.0371 602.927 59.2947C599.308 57.5524 594.752 56.6812 589.257 56.6812C578.266 56.6812 570.225 60.2999 565.132 67.5374C560.173 74.6408 557.693 85.765 557.693 100.91C557.693 107.477 558.095 113.173 558.9 117.998C559.838 122.689 561.178 126.71 562.92 130.061C565.601 135.02 569.153 138.839 573.575 141.52C577.998 144.2 583.225 145.541 589.257 145.541C595.422 145.541 601.319 144.2 606.948 141.52C612.577 138.839 617.402 135.02 621.423 130.061L627.454 134.886C622.093 143.061 615.928 149.159 608.958 153.18C601.989 157.067 593.813 159.01 584.432 159.01C575.05 159.01 566.874 157.134 559.905 153.381C553.069 149.495 547.708 143.865 543.822 136.494C538.997 127.514 536.584 116.658 536.584 103.926C536.584 92.2652 538.662 82.1462 542.816 73.5686C547.105 64.9909 553.136 58.3566 560.91 53.6656C568.683 48.8407 577.73 46.4282 588.05 46.4282ZM848.97 46.4282C856.743 46.4282 863.445 47.7685 869.074 50.449C874.837 52.9955 879.26 56.6142 882.342 61.3051C885.559 65.9961 887.167 71.4911 887.167 77.7904C887.167 82.7494 886.095 86.5691 883.951 89.2496C881.94 91.9302 878.858 93.2704 874.703 93.2704C870.95 93.2704 867.935 92.1982 865.656 90.0538C863.512 87.9094 862.44 85.0278 862.44 81.4091C862.44 78.0584 863.311 75.1769 865.053 72.7644C866.929 70.3519 869.409 68.6766 872.492 67.7384C870.481 63.8516 867.6 61.0371 863.847 59.2947C860.228 57.5524 855.671 56.6812 850.176 56.6812C839.186 56.6812 831.144 60.2999 826.051 67.5374C821.092 74.6408 818.613 85.765 818.613 100.91C818.613 107.477 819.015 113.173 819.819 117.998C820.757 122.689 822.098 126.71 823.84 130.061C826.52 135.02 830.072 138.839 834.495 141.52C838.918 144.2 844.145 145.541 850.176 145.541C856.341 145.541 862.238 144.2 867.868 141.52C873.497 138.839 878.322 135.02 882.342 130.061L888.374 134.886C883.013 143.061 876.847 149.159 869.878 153.18C862.909 157.067 854.733 159.01 845.351 159.01C835.969 159.01 827.794 157.134 820.824 153.381C813.989 149.495 808.628 143.865 804.741 136.494C799.916 127.514 797.504 116.658 797.504 103.926C797.504 92.2652 799.581 82.1462 803.736 73.5686C808.025 64.9909 814.056 58.3566 821.83 53.6656C829.603 48.8407 838.65 46.4282 848.97 46.4282ZM1003.8 101.714C1003.8 110.426 1002.46 118.735 999.776 126.643C997.23 134.417 993.611 140.85 988.92 145.943C984.899 150.366 979.94 153.649 974.043 155.794C968.146 157.938 961.445 159.01 953.939 159.01C946.568 159.01 940.001 158.005 934.237 155.995C928.474 153.85 923.582 150.634 919.561 146.345C915.005 141.386 911.453 135.288 908.906 128.05C906.494 120.679 905.288 112.704 905.288 104.127C905.288 95.4149 906.561 87.1052 909.107 79.1977C911.654 71.1561 915.34 64.5888 920.165 59.4958C924.453 54.9389 929.412 51.6552 935.042 49.6448C940.805 47.5004 947.372 46.4282 954.743 46.4282C962.115 46.4282 968.749 47.5004 974.646 49.6448C980.544 51.6552 985.502 54.8049 989.523 59.0937C994.214 64.0527 997.766 70.2849 1000.18 77.7904C1002.59 85.1618 1003.8 93.1364 1003.8 101.714ZM926.799 101.915C926.799 110.091 927.402 117.194 928.608 123.225C929.949 129.123 931.758 134.014 934.036 137.901C936.315 141.252 938.995 143.865 942.078 145.742C945.295 147.618 949.449 148.556 954.542 148.556C963.79 148.556 970.693 145.407 975.249 139.107C977.662 135.623 979.404 130.798 980.476 124.633C981.683 118.467 982.286 111.364 982.286 103.322C982.286 95.2808 981.616 88.2444 980.275 82.2133C979.069 76.1821 977.327 71.2901 975.048 67.5374C972.904 64.0527 970.156 61.4392 966.806 59.6968C963.589 57.8205 959.434 56.8823 954.341 56.8823C944.959 56.8823 938.191 59.9649 934.036 66.1301C929.211 73.6356 926.799 85.5639 926.799 101.915ZM1035.77 144.938V60.501L1020.29 56.6812V48.4386H1049.24L1053.66 68.5426H1054.47C1058.35 61.8412 1063.51 56.4802 1069.95 52.4594C1076.51 48.4386 1083.48 46.4282 1090.85 46.4282C1096.35 46.4282 1101.24 47.5004 1105.53 49.6448C1109.82 51.6552 1112.97 54.2017 1114.98 57.2843C1117.12 60.635 1118.87 65.0579 1120.21 70.553C1124.49 63.0475 1130.06 57.1503 1136.89 52.8615C1143.73 48.5726 1151.03 46.4282 1158.8 46.4282C1164.17 46.4282 1168.99 47.5004 1173.28 49.6448C1177.57 51.6552 1180.85 54.4698 1183.13 58.0885C1184.74 60.635 1186.01 63.9187 1186.95 67.9394C1187.89 71.9602 1188.56 77.1873 1188.96 83.6205C1189.36 89.9198 1189.56 97.9614 1189.56 107.745V144.938L1205.04 148.757V157H1156.59V148.757L1170.06 144.938V100.106C1170.06 91.3941 1169.8 84.8938 1169.26 80.6049C1168.86 76.3161 1168.05 72.9654 1166.85 70.553C1165.24 67.3363 1162.96 64.9239 1160.01 63.3155C1157.2 61.5732 1153.85 60.702 1149.96 60.702C1146.61 60.702 1143.32 61.3722 1140.11 62.7124C1136.89 64.0527 1134.01 65.862 1131.46 68.1405C1128.51 70.821 1126.3 73.9706 1124.83 77.5894C1123.49 81.2081 1122.68 85.765 1122.42 91.26V144.938L1135.89 148.757V157H1089.45V148.757L1102.92 144.938V100.106C1102.92 91.3941 1102.65 84.8938 1102.11 80.6049C1101.71 76.3161 1100.91 72.9654 1099.7 70.553C1098.09 67.3363 1095.81 64.9239 1092.86 63.3155C1090.05 61.5732 1086.7 60.702 1082.81 60.702C1079.46 60.702 1076.18 61.3722 1072.96 62.7124C1069.74 64.0527 1066.86 65.862 1064.32 68.1405C1061.37 70.821 1059.16 73.9706 1057.68 77.5894C1056.34 81.2081 1055.54 85.765 1055.27 91.26V144.938L1068.74 148.757V157H1020.29V148.757L1035.77 144.938ZM1248.99 181.125L1268.49 184.945V193.187H1214.01V184.945L1229.49 181.125V60.501L1214.01 56.6812V48.4386H1242.96L1245.98 63.9187C1250.27 57.2173 1255.09 52.6604 1260.45 50.248C1265.95 47.7015 1272.11 46.4282 1278.95 46.4282C1285.78 46.4282 1291.95 47.4334 1297.44 49.4438C1303.07 51.4542 1307.63 54.6708 1311.11 59.0937C1315.14 64.1867 1318.28 70.3519 1320.56 77.5894C1322.98 84.6928 1324.18 92.3993 1324.18 100.709C1324.18 109.287 1322.84 117.395 1320.16 125.035C1317.61 132.54 1314.13 138.839 1309.71 143.932C1302.2 152.644 1291.41 157 1277.34 157C1271.58 157 1266.35 155.928 1261.66 153.783C1257.1 151.505 1252.88 147.618 1248.99 142.123V181.125ZM1248.79 100.91C1248.79 108.818 1249.4 115.72 1250.6 121.617C1251.81 127.514 1253.55 132.272 1255.83 135.891C1257.97 139.241 1260.59 141.855 1263.67 143.731C1266.89 145.608 1270.97 146.546 1275.93 146.546C1280.49 146.546 1284.44 145.742 1287.79 144.133C1291.28 142.391 1294.09 140.046 1296.24 137.097C1298.65 133.746 1300.39 129.055 1301.46 123.024C1302.54 116.993 1303.07 110.091 1303.07 102.317C1303.07 94.4097 1302.47 87.5743 1301.26 81.8112C1300.06 76.048 1298.31 71.2901 1296.04 67.5374C1293.89 64.0527 1291.21 61.4392 1287.99 59.6968C1284.91 57.8205 1280.82 56.8823 1275.73 56.8823C1271.17 56.8823 1267.15 57.6864 1263.67 59.2947C1260.32 60.769 1257.7 63.0475 1255.83 66.1301C1253.68 69.7488 1251.94 74.5067 1250.6 80.4039C1249.4 86.167 1248.79 93.0024 1248.79 100.91ZM1341.1 133.478C1341.1 123.024 1345.99 114.782 1355.77 108.75C1365.56 102.719 1381.77 98.0284 1404.42 94.6777C1403.89 86.7702 1403.15 80.6049 1402.21 76.1821C1401.28 71.7592 1400.07 68.2075 1398.59 65.527C1396.72 62.0423 1394.1 59.4958 1390.75 57.8875C1387.4 56.1451 1383.78 55.2739 1379.9 55.2739C1376.15 55.2739 1372.73 55.9441 1369.65 57.2843C1366.7 58.6246 1364.69 60.434 1363.61 62.7124C1365.49 64.0527 1366.83 65.795 1367.63 67.9394C1368.57 70.0839 1369.04 72.0943 1369.04 73.9706C1369.04 77.3213 1367.9 80.0018 1365.62 82.0122C1363.48 83.8886 1360.8 84.8268 1357.58 84.8268C1354.37 84.8268 1351.69 83.7546 1349.54 81.6101C1347.53 79.4657 1346.53 76.4501 1346.53 72.5634C1346.53 66.9343 1348.47 62.1763 1352.36 58.2895C1356.24 54.4028 1361.13 51.4542 1367.03 49.4438C1373.06 47.4334 1379.09 46.4282 1385.13 46.4282C1390.62 46.4282 1395.65 47.2994 1400.2 49.0417C1404.89 50.65 1408.85 53.0625 1412.06 56.2791C1420.37 64.5888 1424.53 79.3317 1424.53 100.508V129.659C1424.53 136.226 1424.93 140.783 1425.74 143.329C1426.67 145.876 1428.62 147.149 1431.57 147.149H1440.61V153.18C1430.96 157.067 1423.46 159.01 1418.1 159.01C1413.94 159.01 1411.13 157.536 1409.65 154.588C1408.31 151.505 1407.64 145.675 1407.64 137.097H1406.84C1402.68 143.932 1397.19 149.293 1390.35 153.18C1383.52 157.067 1376.15 159.01 1368.24 159.01C1359.79 159.01 1353.16 156.732 1348.33 152.175C1343.51 147.618 1341.1 141.386 1341.1 133.478ZM1376.68 147.35C1380.43 147.35 1384.32 146.412 1388.34 144.536C1392.5 142.525 1395.98 139.778 1398.8 136.293C1400.94 133.612 1402.48 130.463 1403.42 126.844C1404.49 123.091 1405.03 118.735 1405.03 113.776C1405.03 111.498 1404.96 109.287 1404.83 107.142C1404.69 104.864 1404.49 102.719 1404.22 100.709C1393.37 102.853 1384.86 105.199 1378.69 107.745C1372.53 110.158 1368.17 113.106 1365.62 116.591C1363.08 119.942 1361.8 124.164 1361.8 129.257C1361.8 135.02 1363.08 139.51 1365.62 142.726C1368.3 145.809 1371.99 147.35 1376.68 147.35ZM1490.49 149.763C1498 149.763 1504.1 148.221 1508.79 145.139C1513.61 142.056 1516.02 137.767 1516.02 132.272C1516.02 127.849 1514.55 124.298 1511.6 121.617C1508.65 118.936 1504.97 116.792 1500.54 115.184C1496.26 113.441 1491.9 111.967 1487.48 110.761C1481.98 109.019 1476.69 107.008 1471.59 104.73C1466.5 102.317 1462.35 99.0336 1459.13 94.8788C1455.91 90.7239 1454.3 85.2289 1454.3 78.3935C1454.3 68.7436 1457.79 61.0371 1464.76 55.2739C1471.86 49.3768 1481.71 46.4282 1494.31 46.4282C1505.03 46.4282 1513.48 48.7067 1519.64 53.2636C1525.94 57.6864 1529.09 63.7846 1529.09 71.5582C1529.09 75.713 1528.15 79.0636 1526.28 81.6101C1524.4 84.0226 1521.72 85.2289 1518.24 85.2289C1515.15 85.2289 1512.61 84.2907 1510.6 82.4143C1508.59 80.5379 1507.58 78.1255 1507.58 75.1769C1507.58 72.6304 1508.25 70.3519 1509.59 68.3415C1510.93 66.1971 1512.67 64.6558 1514.82 63.7176C1512.81 60.9031 1510.19 58.8927 1506.98 57.6864C1503.89 56.3462 1499.87 55.676 1494.91 55.676C1486.87 55.676 1480.84 57.1503 1476.82 60.0989C1472.8 62.9135 1470.79 67.1353 1470.79 72.7644C1470.79 76.7852 1471.73 80.0018 1473.6 82.4143C1475.62 84.6928 1478.5 86.6361 1482.25 88.2445C1486 89.8528 1490.63 91.5281 1496.12 93.2704C1500.68 94.6107 1505.17 96.152 1509.59 97.8944C1514.01 99.5027 1518.03 101.513 1521.65 103.926C1525.27 106.338 1528.15 109.354 1530.3 112.972C1532.44 116.591 1533.51 121.081 1533.51 126.442C1533.51 133.277 1531.64 139.174 1527.89 144.133C1524.13 148.958 1518.97 152.644 1512.41 155.191C1505.84 157.737 1498.27 159.01 1489.69 159.01C1477.89 159.01 1468.38 156.598 1461.14 151.773C1453.9 146.948 1450.28 140.448 1450.28 132.272C1450.28 127.983 1451.22 124.633 1453.1 122.22C1455.11 119.674 1457.92 118.4 1461.54 118.4C1464.76 118.4 1467.44 119.339 1469.58 121.215C1471.86 123.091 1473 125.571 1473 128.653C1473 131.2 1472.26 133.612 1470.79 135.891C1469.45 138.169 1467.77 139.845 1465.76 140.917C1467.51 143.463 1470.59 145.608 1475.01 147.35C1479.57 148.958 1484.73 149.763 1490.49 149.763ZM1591.6 149.763C1599.11 149.763 1605.2 148.221 1609.9 145.139C1614.72 142.056 1617.13 137.767 1617.13 132.272C1617.13 127.849 1615.66 124.298 1612.71 121.617C1609.76 118.936 1606.08 116.792 1601.65 115.184C1597.36 113.441 1593.01 111.967 1588.59 110.761C1583.09 109.019 1577.8 107.008 1572.7 104.73C1567.61 102.317 1563.46 99.0336 1560.24 94.8788C1557.02 90.7239 1555.41 85.2289 1555.41 78.3935C1555.41 68.7436 1558.9 61.0371 1565.87 55.2739C1572.97 49.3768 1582.82 46.4282 1595.42 46.4282C1606.14 46.4282 1614.59 48.7067 1620.75 53.2636C1627.05 57.6864 1630.2 63.7846 1630.2 71.5582C1630.2 75.713 1629.26 79.0636 1627.39 81.6101C1625.51 84.0226 1622.83 85.2289 1619.34 85.2289C1616.26 85.2289 1613.72 84.2907 1611.7 82.4143C1609.69 80.5379 1608.69 78.1255 1608.69 75.1769C1608.69 72.6304 1609.36 70.3519 1610.7 68.3415C1612.04 66.1971 1613.78 64.6558 1615.93 63.7176C1613.92 60.9031 1611.3 58.8927 1608.09 57.6864C1605 56.3462 1600.98 55.676 1596.02 55.676C1587.98 55.676 1581.95 57.1503 1577.93 60.0989C1573.91 62.9135 1571.9 67.1353 1571.9 72.7644C1571.9 76.7852 1572.84 80.0018 1574.71 82.4143C1576.72 84.6928 1579.61 86.6361 1583.36 88.2445C1587.11 89.8528 1591.73 91.5281 1597.23 93.2704C1601.79 94.6107 1606.28 96.152 1610.7 97.8944C1615.12 99.5027 1619.14 101.513 1622.76 103.926C1626.38 106.338 1629.26 109.354 1631.41 112.972C1633.55 116.591 1634.62 121.081 1634.62 126.442C1634.62 133.277 1632.75 139.174 1628.99 144.133C1625.24 148.958 1620.08 152.644 1613.51 155.191C1606.95 157.737 1599.37 159.01 1590.8 159.01C1579 159.01 1569.49 156.598 1562.25 151.773C1555.01 146.948 1551.39 140.448 1551.39 132.272C1551.39 127.983 1552.33 124.633 1554.21 122.22C1556.22 119.674 1559.03 118.4 1562.65 118.4C1565.87 118.4 1568.55 119.339 1570.69 121.215C1572.97 123.091 1574.11 125.571 1574.11 128.653C1574.11 131.2 1573.37 133.612 1571.9 135.891C1570.56 138.169 1568.88 139.845 1566.87 140.917C1568.62 143.463 1571.7 145.608 1576.12 147.35C1580.68 148.958 1585.84 149.763 1591.6 149.763Z" fill="#EF3B33"/>
<path fill-rule="evenodd" clip-rule="evenodd" d="M743.567 72.8268C743.567 54.1463 729.631 39.0027 712.442 39.0027C695.252 39.0027 681.316 54.1463 681.316 72.8268V119.284C681.316 137.965 695.252 153.108 712.442 153.108C729.631 153.108 743.567 137.965 743.567 119.284V72.8268ZM716.726 98.3585C716.078 97.9614 715.443 97.5724 714.676 97.3905C714.116 93.7029 713.582 90.006 713.069 86.3114C713.013 85.8992 712.975 85.4641 712.937 85.0283L712.937 85.0283C712.887 84.454 712.838 83.8784 712.745 83.3524L712.743 83.3412C712.706 83.129 712.606 82.5514 712.318 82.5993C712.066 82.6399 711.934 83.6575 711.882 84.0583C711.877 84.0929 711.873 84.123 711.87 84.1474C711.781 84.8102 711.739 85.485 711.698 86.1593C711.661 86.7477 711.625 87.3358 711.557 87.9152C711.189 91.0741 710.748 94.24 710.162 97.3686C710.047 97.4098 709.929 97.4495 709.81 97.4895L709.809 97.4896C709.485 97.5984 709.155 97.7095 708.858 97.8591C708.719 97.9288 708.408 98.1577 708.157 98.3422C707.972 98.4776 707.821 98.589 707.794 98.5959C707.712 98.6168 707.635 98.6052 707.561 98.5704L700.111 92.2572C699.819 92.0713 699.46 92.0759 699.285 92.406L706.219 100.1C706.117 100.295 706.01 100.49 705.902 100.685L705.902 100.685C705.415 101.571 704.921 102.471 704.819 103.493L691.145 105.383C690.66 105.985 691.243 106.139 691.761 106.246C692.825 106.463 693.99 106.571 695.15 106.677L695.15 106.677C696.058 106.761 696.963 106.844 697.813 106.98L704.875 108.024C705.068 108.818 705.497 109.491 705.926 110.166L705.926 110.166C706.036 110.338 706.146 110.511 706.252 110.685C705.494 111.668 704.705 112.632 703.916 113.598C702.755 115.018 701.594 116.438 700.529 117.919L700.503 117.955C700.211 118.359 699.658 119.127 700.568 118.953L707.563 112.087C707.633 112.033 707.705 112.029 707.789 112.052C707.857 112.07 708.052 112.213 708.278 112.377L708.278 112.377C708.549 112.575 708.864 112.805 709.054 112.889C709.236 112.97 709.426 113.023 709.615 113.076C709.853 113.143 710.09 113.209 710.309 113.33L710.953 118.061C711.091 119.403 711.21 120.748 711.328 122.092C711.487 123.901 711.646 125.708 711.853 127.509C711.881 127.756 712.045 129.12 712.21 129.157C712.667 129.259 712.76 128.739 712.825 128.377C712.83 128.349 712.835 128.321 712.84 128.295C713.054 127.149 713.144 125.861 713.233 124.584C713.296 123.683 713.358 122.787 713.463 121.952C713.632 120.621 713.845 119.294 714.059 117.967C714.31 116.406 714.562 114.844 714.74 113.275L717.481 111.954C718.906 113.295 720.419 114.52 721.937 115.748L721.937 115.748C722.253 116.004 722.569 116.26 722.884 116.517C723.127 116.716 723.368 116.938 723.608 117.162L723.608 117.162C723.931 117.461 724.255 117.761 724.588 118.005C724.638 118.042 724.686 118.078 724.731 118.113C725.031 118.341 725.256 118.512 725.719 118.391C726.111 118.146 725.283 117.375 724.827 116.95L724.826 116.95C724.715 116.847 724.627 116.764 724.583 116.715C723.995 116.054 723.412 115.39 722.828 114.725L722.827 114.724L722.827 114.724C721.563 113.283 720.298 111.843 718.988 110.443C718.891 110.234 719.143 109.861 719.353 109.55C719.437 109.427 719.513 109.313 719.56 109.223C719.678 108.992 719.768 108.749 719.857 108.506L719.857 108.506C719.9 108.39 719.943 108.274 719.989 108.159L733.796 106.046C733.894 105.892 733.983 105.627 733.876 105.469C733.71 105.224 729.966 104.834 727.835 104.611C727.196 104.545 726.702 104.493 726.494 104.465C725.72 104.361 724.949 104.231 724.178 104.102L724.177 104.102L724.177 104.102C722.89 103.886 721.603 103.67 720.302 103.57L720.187 103.486C720.041 102.476 719.561 101.615 719.078 100.749C718.97 100.555 718.862 100.361 718.757 100.165C720.365 98.6395 721.849 97.0026 723.335 95.3629L723.336 95.3616C723.618 95.0503 723.901 94.739 724.184 94.4282C724.257 94.3483 724.387 94.2283 724.543 94.0839L724.543 94.0838C725.268 93.4137 726.562 92.2184 725.406 92.0597C724.832 92.4473 724.318 92.9251 723.804 93.4028C723.502 93.6842 723.199 93.9655 722.884 94.2283C721.478 95.4011 720.031 96.5342 718.587 97.6653L718.587 97.6655C718.151 98.0072 717.715 98.3488 717.28 98.6912C717.093 98.5827 716.909 98.4704 716.727 98.3587L716.726 98.3585ZM712.002 61.7245C719.497 60.4076 717.339 72.2252 711.191 68.7135C708.082 66.9318 708.293 62.3786 712.002 61.7245ZM711.994 63.5492C709.189 64.4357 711.815 68.8598 714.214 67.1298C716.334 65.5977 713.872 62.9553 711.994 63.5492Z" fill="#EF3B33"/>
</svg>
