<svg width="232" height="100" viewBox="0 0 232 100" fill="none" xmlns="http://www.w3.org/2000/svg">
<path d="M57.465 44.7352V71.0354H25.8295V44.7352C25.8295 35.9993 32.9113 28.9175 41.6472 28.9175C50.3831 28.9175 57.465 35.9993 57.465 44.7352Z" stroke="#262626" stroke-width="3.10622"/>
<line x1="32.7631" y1="71.4902" x2="57.9209" y2="46.3324" stroke="#262626" stroke-width="3.10622"/>
<line x1="33.9646" y1="70.773" x2="40.148" y2="28.967" stroke="#262626" stroke-width="3.10622"/>
<line x1="25.306" y1="50.3826" x2="35.5121" y2="59.7012" stroke="#262626" stroke-width="3.10622"/>
<line x1="39.2319" y1="38.8664" x2="57.7213" y2="47.0017" stroke="#262626" stroke-width="3.10622"/>
<line x1="51.4961" y1="70.8729" x2="38.5028" y2="39.5517" stroke="#262626" stroke-width="3.10622"/>
<path d="M80.8708 67.4618C80.8708 67.1674 80.8024 66.9046 80.6658 66.6733C80.5396 66.442 80.3241 66.2212 80.0192 66.011C79.6933 65.8217 79.2675 65.643 78.7419 65.4748C78.2162 65.3066 77.5592 65.1489 76.7707 65.0017C75.7824 64.802 74.8783 64.5549 74.0583 64.2605C73.2488 63.9662 72.5497 63.6087 71.9609 63.1882C71.3827 62.7887 70.9306 62.3156 70.6047 61.7689C70.2788 61.2222 70.1159 60.5862 70.1159 59.8608C70.1159 59.1669 70.2788 58.5099 70.6047 57.8896C70.9412 57.2588 71.4195 56.7069 72.0398 56.2338C72.6495 55.7607 73.3855 55.3875 74.2475 55.1141C75.1201 54.8408 76.0873 54.7041 77.1491 54.7041C78.2846 54.7041 79.3043 54.8461 80.2085 55.1299C81.1126 55.4032 81.88 55.7817 82.5108 56.2653C83.1311 56.7489 83.6094 57.3219 83.9459 57.9842C84.2823 58.6465 84.4505 59.3614 84.4505 60.1289H80.6815C80.6815 59.8135 80.6132 59.5139 80.4765 59.23C80.3504 58.9356 80.1611 58.6728 79.9088 58.4415C79.6145 58.1682 79.236 57.9527 78.7734 57.795C78.3108 57.6268 77.7694 57.5427 77.1491 57.5427C76.5814 57.5427 76.0821 57.6057 75.651 57.7319C75.2305 57.8475 74.8836 58.0105 74.6102 58.2208C74.3369 58.41 74.1319 58.636 73.9952 58.8989C73.8585 59.1512 73.7902 59.4192 73.7902 59.7031C73.7902 59.9975 73.848 60.2656 73.9637 60.5074C74.0793 60.7386 74.2843 60.9436 74.5787 61.1224C74.852 61.3116 75.2305 61.4851 75.7141 61.6428C76.2082 61.8005 76.8285 61.9424 77.5749 62.0685C78.6157 62.2578 79.5672 62.4891 80.4292 62.7624C81.2913 63.0358 82.0272 63.3722 82.637 63.7717C83.2467 64.1922 83.7198 64.6863 84.0562 65.254C84.3927 65.8217 84.5609 66.4946 84.5609 67.2725C84.5609 68.0295 84.3822 68.7233 84.0247 69.3541C83.6778 69.9849 83.1837 70.5263 82.5424 70.9784C81.8906 71.4305 81.1126 71.7827 80.2085 72.035C79.3043 72.2873 78.3003 72.4134 77.1965 72.4134C75.9664 72.4134 74.8731 72.2505 73.9164 71.9246C72.9702 71.5987 72.1764 71.1676 71.5351 70.6315C70.8833 70.1058 70.3892 69.5013 70.0528 68.818C69.7164 68.1346 69.5482 67.4407 69.5482 66.7364H73.2067C73.2383 67.262 73.3749 67.7088 73.6167 68.0768C73.8691 68.4342 74.1844 68.7233 74.5629 68.9441C74.9309 69.1754 75.3514 69.3436 75.8245 69.4487C76.2976 69.5434 76.7759 69.5907 77.2595 69.5907C77.9113 69.5907 78.479 69.5223 78.9627 69.3857C79.4568 69.249 79.851 69.065 80.1454 68.8337C80.3872 68.6445 80.5659 68.4395 80.6815 68.2187C80.8077 67.9874 80.8708 67.7351 80.8708 67.4618ZM96.6877 50.8563V55.0195H103.106V57.8423H96.6877V65.9952C96.6877 66.626 96.7613 67.1569 96.9085 67.5879C97.0662 68.0084 97.2817 68.3396 97.5551 68.5814C97.8284 68.8337 98.1543 69.0125 98.5328 69.1176C98.9113 69.2227 99.3265 69.2753 99.7786 69.2753C100.104 69.2753 100.441 69.2595 100.788 69.228C101.135 69.1964 101.471 69.1544 101.797 69.1018C102.112 69.0598 102.407 69.0125 102.68 68.9599C102.964 68.8968 103.201 68.8442 103.39 68.8022L103.8 71.4042C103.527 71.5724 103.195 71.7196 102.806 71.8457C102.428 71.9614 102.018 72.0612 101.576 72.1454C101.135 72.2295 100.672 72.2925 100.189 72.3346C99.7155 72.3872 99.2424 72.4134 98.7693 72.4134C97.9073 72.4134 97.1135 72.2978 96.3881 72.0665C95.6732 71.8247 95.0582 71.4515 94.5431 70.9469C94.0279 70.4527 93.6232 69.8167 93.3288 69.0387C93.0449 68.2608 92.903 67.3251 92.903 66.2317V57.8423H88.7714V55.0195H92.903V50.8563H96.6877ZM119.412 72.0823C119.296 71.872 119.202 71.6197 119.128 71.3253C119.065 71.0205 119.007 70.7051 118.954 70.3792C118.692 70.6525 118.392 70.9153 118.056 71.1676C117.73 71.4094 117.362 71.6197 116.952 71.7984C116.542 71.9877 116.1 72.1348 115.627 72.24C115.154 72.3451 114.644 72.3977 114.097 72.3977C113.214 72.3977 112.405 72.2715 111.669 72.0192C110.943 71.7564 110.323 71.3989 109.808 70.9469C109.282 70.5053 108.872 69.9744 108.578 69.3541C108.294 68.7233 108.152 68.0452 108.152 67.3198C108.152 66.3842 108.336 65.5589 108.704 64.844C109.083 64.1186 109.629 63.5194 110.344 63.0463C111.007 62.6047 111.821 62.2683 112.789 62.037C113.766 61.8057 114.87 61.6901 116.1 61.6901H118.844V60.5389C118.844 60.0973 118.765 59.6978 118.608 59.3404C118.46 58.983 118.245 58.6728 117.961 58.41C117.656 58.1472 117.283 57.9474 116.841 57.8107C116.41 57.6636 115.911 57.59 115.343 57.59C114.828 57.59 114.376 57.653 113.987 57.7792C113.609 57.9054 113.293 58.0788 113.041 58.2996C112.789 58.4994 112.599 58.7464 112.473 59.0408C112.358 59.3246 112.3 59.6295 112.3 59.9554H108.515C108.525 59.2721 108.688 58.615 109.004 57.9842C109.319 57.3534 109.782 56.7962 110.392 56.3126C110.98 55.8185 111.706 55.4295 112.568 55.1457C113.44 54.8513 114.434 54.7041 115.548 54.7041C116.547 54.7041 117.477 54.8303 118.339 55.0826C119.212 55.3244 119.964 55.6871 120.595 56.1707C121.225 56.6543 121.719 57.2693 122.077 58.0157C122.434 58.7517 122.613 59.6032 122.613 60.5704V68.1556C122.613 68.9231 122.666 69.617 122.771 70.2372C122.886 70.847 123.049 71.3726 123.26 71.8142V72.0823H119.412ZM114.823 69.3699C115.317 69.3699 115.774 69.3068 116.195 69.1807C116.626 69.0545 117.015 68.8916 117.362 68.6918C117.709 68.4921 118.008 68.266 118.261 68.0137C118.513 67.7614 118.707 67.4986 118.844 67.2252V64.0713H116.416C115.596 64.0713 114.886 64.1501 114.287 64.3078C113.687 64.455 113.209 64.6705 112.852 64.9544C112.536 65.1962 112.3 65.4853 112.142 65.8217C111.995 66.1581 111.921 66.5366 111.921 66.9571C111.921 67.3041 111.984 67.63 112.11 67.9349C112.237 68.2292 112.421 68.4815 112.662 68.6918C112.904 68.9021 113.204 69.0703 113.561 69.1964C113.919 69.3121 114.339 69.3699 114.823 69.3699ZM135.481 50.8563V55.0195H141.899V57.8423H135.481V65.9952C135.481 66.626 135.555 67.1569 135.702 67.5879C135.86 68.0084 136.075 68.3396 136.348 68.5814C136.622 68.8337 136.948 69.0125 137.326 69.1176C137.705 69.2227 138.12 69.2753 138.572 69.2753C138.898 69.2753 139.234 69.2595 139.581 69.228C139.928 69.1964 140.265 69.1544 140.59 69.1018C140.906 69.0598 141.2 69.0125 141.474 68.9599C141.757 68.8968 141.994 68.8442 142.183 68.8022L142.593 71.4042C142.32 71.5724 141.989 71.7196 141.6 71.8457C141.221 71.9614 140.811 72.0612 140.37 72.1454C139.928 72.2295 139.466 72.2925 138.982 72.3346C138.509 72.3872 138.036 72.4134 137.563 72.4134C136.701 72.4134 135.907 72.2978 135.181 72.0665C134.467 71.8247 133.852 71.4515 133.336 70.9469C132.821 70.4527 132.416 69.8167 132.122 69.0387C131.838 68.2608 131.696 67.3251 131.696 66.2317V57.8423H127.565V55.0195H131.696V50.8563H135.481ZM148.176 55.0195H157.227V68.9599H162.242V72.0823H148.176V68.9599H153.427V58.1577H148.176V55.0195ZM153.08 50.604C153.08 50.2991 153.133 50.0205 153.238 49.7682C153.343 49.5054 153.495 49.2794 153.695 49.0901C153.884 48.9114 154.11 48.7747 154.373 48.6801C154.646 48.575 154.951 48.5224 155.288 48.5224C155.855 48.5224 156.313 48.6696 156.66 48.964C157.017 49.2478 157.222 49.6158 157.275 50.0678C157.348 50.5304 157.269 50.9352 157.038 51.2821C156.807 51.6185 156.47 51.8446 156.029 51.9602C155.808 52.16 155.545 52.2914 155.24 52.3544C154.936 52.4175 154.599 52.3912 154.231 52.2756C153.853 52.16 153.564 51.9549 153.364 51.6606C153.175 51.3557 153.08 51.0035 153.08 50.604ZM166.011 63.3932C166.011 62.1527 166.19 61.0067 166.547 59.9554C166.905 58.8936 167.425 57.9737 168.108 57.1957C168.781 56.4178 169.607 55.808 170.584 55.3664C171.562 54.9249 172.676 54.7041 173.927 54.7041C175.179 54.7041 176.293 54.9249 177.271 55.3664C178.259 55.808 179.095 56.4178 179.778 57.1957C180.451 57.9737 180.966 58.8936 181.323 59.9554C181.681 61.0067 181.86 62.1527 181.86 63.3932V63.7244C181.86 64.9754 181.681 66.1266 181.323 67.1779C180.966 68.2292 180.451 69.1439 179.778 69.9218C179.105 70.6998 178.275 71.3096 177.286 71.7511C176.309 72.1927 175.2 72.4134 173.959 72.4134C172.708 72.4134 171.588 72.1927 170.6 71.7511C169.612 71.3096 168.781 70.6998 168.108 69.9218C167.425 69.1439 166.905 68.2292 166.547 67.1779C166.19 66.1266 166.011 64.9754 166.011 63.7244V63.3932ZM169.78 63.7244C169.78 64.4918 169.859 65.2172 170.017 65.9006C170.185 66.5839 170.442 67.1832 170.789 67.6983C171.126 68.2135 171.557 68.6235 172.082 68.9283C172.608 69.2227 173.234 69.3699 173.959 69.3699C174.663 69.3699 175.278 69.2227 175.804 68.9283C176.33 68.6235 176.761 68.2135 177.097 67.6983C177.434 67.1832 177.681 66.5839 177.838 65.9006C178.007 65.2172 178.091 64.4918 178.091 63.7244V63.3932C178.091 62.6468 178.007 61.9319 177.838 61.2485C177.67 60.5652 177.423 59.9659 177.097 59.4508C176.75 58.9356 176.314 58.5256 175.788 58.2208C175.273 57.9159 174.653 57.7634 173.927 57.7634C173.213 57.7634 172.592 57.9159 172.067 58.2208C171.552 58.5256 171.126 58.9356 170.789 59.4508C170.442 59.9659 170.185 60.5652 170.017 61.2485C169.859 61.9319 169.78 62.6468 169.78 63.3932V63.7244ZM186.102 72.0823V55.0195H189.508L189.744 57.448C189.976 57.1221 190.228 56.8225 190.501 56.5492C190.785 56.2653 191.085 56.013 191.4 55.7922C191.905 55.4453 192.457 55.1772 193.056 54.988C193.655 54.7987 194.286 54.7041 194.948 54.7041C195.821 54.7041 196.62 54.8303 197.345 55.0826C198.071 55.3349 198.691 55.7344 199.206 56.2811C199.721 56.8278 200.121 57.5269 200.405 58.3785C200.689 59.2195 200.83 60.2393 200.83 61.4378V72.0823H197.062V61.5008C197.062 60.7965 196.983 60.2077 196.825 59.7346C196.667 59.2616 196.436 58.8831 196.131 58.5992C195.826 58.3154 195.458 58.1156 195.027 58C194.596 57.8738 194.102 57.8107 193.545 57.8107C193.082 57.8107 192.651 57.8738 192.252 58C191.852 58.1156 191.49 58.2838 191.164 58.5046C190.911 58.6728 190.675 58.8778 190.454 59.1196C190.233 59.3614 190.039 59.6243 189.871 59.9081V72.0823H186.102Z" fill="black"/>
</svg>
